<?xml version="1.0" encoding="UTF-8"?>
<svg version="1.1" xmlns="http://www.w3.org/2000/svg" width="512" height="512">
<path d="M0 0 C1.46373047 -0.05994141 1.46373047 -0.05994141 2.95703125 -0.12109375 C11.91748829 1.42829604 18.26081066 9.07669874 24.39550781 15.24145508 C25.39450302 16.23473771 26.39412414 17.22739116 27.39431763 18.21946716 C30.09121288 20.89851717 32.77857077 23.58694057 35.46369267 26.27778459 C37.7123722 28.52956752 39.96564621 30.77672501 42.21888804 33.02394122 C47.53622632 38.32726517 52.84576443 43.63830878 58.15039062 48.9543457 C63.61121575 54.42665814 69.08471158 59.88605473 74.5646565 65.3392151 C79.28210365 70.03447143 83.99171511 74.73748669 88.69514728 79.44678229 C91.49877804 82.25377462 94.30518808 85.05783046 97.11911774 87.85450172 C99.76460931 90.48447152 102.40012579 93.12405419 105.02846909 95.77115822 C106.44753784 97.19563992 107.87642103 98.61032367 109.30563354 100.02462769 C115.01105508 105.79588956 120.76460605 111.7907206 120.75 120.4375 C120.77191406 121.200625 120.79382813 121.96375 120.81640625 122.75 C118.62796577 132.10184501 110.26402543 138.80207116 103.72233582 145.33071899 C102.53673437 146.52479737 101.3517739 147.71951246 100.16739732 148.91480577 C96.92128042 152.18696942 93.66588594 155.44976167 90.40879261 158.71099472 C86.89337697 162.23403999 83.38651298 165.76558141 79.87838745 169.29588318 C71.41118865 177.81275144 62.92974315 186.31536463 54.44702169 194.81676775 C50.44875959 198.82457925 46.45219812 202.83408568 42.45553017 206.84348679 C29.16365786 220.17674297 15.86864415 233.50685155 2.56307507 246.82644081 C1.71213601 247.67829012 0.86119696 248.53013944 -0.01552812 249.40780237 C-0.86846024 250.26164478 -1.72139236 251.11548719 -2.60017091 251.99520361 C-4.32842394 253.72531208 -6.056671 255.45542651 -7.78491211 257.18554688 C-8.6421753 258.04373667 -9.4994385 258.90192646 -10.38267937 259.78612201 C-24.26983535 273.68947323 -38.13482416 287.61470926 -51.99049572 301.54943021 C-66.22818261 315.86768358 -80.48464586 330.16701825 -94.75991172 344.44780767 C-102.76971818 352.46160757 -110.77125369 360.48329342 -118.7520237 368.52602005 C-125.54824672 375.37484535 -132.36145073 382.20619599 -139.19711361 389.01566698 C-142.68124387 392.4874705 -146.15692945 395.9667157 -149.6110096 399.4684391 C-152.77977907 402.68052144 -155.97121561 405.86819511 -159.18145987 409.03881066 C-160.33230353 410.18339726 -161.47493698 411.33631895 -162.60781858 412.49868675 C-170.84278337 420.93419262 -178.56644362 425.01328406 -189.8125 428.4375 C-191.63125477 429.06735109 -193.44813737 429.70271233 -195.26098633 430.34936523 C-196.88797639 430.90081342 -198.51583438 431.4497072 -200.14453125 431.99609375 C-201.04807846 432.30190872 -201.95162567 432.60772369 -202.8825531 432.92280579 C-204.80364027 433.57297154 -206.72507783 434.22210278 -208.64685059 434.87023926 C-213.83061107 436.61912365 -219.01116526 438.37744121 -224.19140625 440.13671875 C-225.77488358 440.67445419 -225.77488358 440.67445419 -227.39035034 441.22305298 C-237.96774739 444.82075674 -248.51775419 448.49538168 -259.0625 452.1875 C-277.61896035 458.6834772 -296.20545386 465.08794648 -314.8125 471.4375 C-284.19951105 495.27986363 -235.65809443 496.27501196 -199.09301758 491.91357422 C-167.81583499 487.79987851 -138.12764323 479.06303752 -108.42333984 468.78292847 C-70.19265961 455.55731692 -31.47568097 444.4568738 8.1875 436.4375 C9.03963074 436.26474548 9.89176147 436.09199097 10.76971436 435.91400146 C31.96088544 431.6365362 53.22029071 427.97232179 74.625 424.9375 C75.98197495 424.74228256 75.98197495 424.74228256 77.36636353 424.54312134 C103.5448052 420.81122628 103.5448052 420.81122628 109.4375 424.4375 C111.34106393 427.70075244 111.77703977 429.6786726 111.8515625 433.375 C110.76970992 436.73510684 108.89998621 438.21207881 106.1875 440.4375 C103.27626391 441.40278896 100.3579196 441.72224803 97.31640625 442.05078125 C96.00211388 442.22012932 96.00211388 442.22012932 94.66127014 442.39289856 C92.79127315 442.63331039 90.92017214 442.8652627 89.04815674 443.0894165 C84.36618602 443.65911671 79.69813375 444.32640873 75.02734375 444.98046875 C73.08198251 445.24820275 71.13658799 445.5156951 69.19116211 445.78295898 C10.34190798 453.92141137 -45.27909139 467.13566813 -101.09889221 487.63731384 C-108.80088347 490.45760909 -116.5425962 493.06357158 -124.375 495.5 C-125.03928009 495.70683411 -125.70356018 495.91366821 -126.38796997 496.12677002 C-154.82330187 504.93913548 -184.57570965 512.40182392 -214.5 512.67578125 C-215.39229309 512.68562042 -216.28458618 512.69545959 -217.20391846 512.70559692 C-252.36710558 513.01348369 -284.89676194 509.35348486 -316.8125 493.4375 C-317.4916748 493.10073242 -318.17084961 492.76396484 -318.87060547 492.41699219 C-326.18170848 488.75177688 -333.00136507 484.75148716 -339.6015625 479.89453125 C-341.76028761 478.47190852 -343.68173024 477.62540946 -346.125 476.8125 C-351.27433797 474.89240787 -353.64793373 472.20442814 -356.625 467.6875 C-360.14238789 458.06096471 -356.07454895 449.14222795 -352.875 440 C-352.33765235 438.43216566 -351.8016416 436.8638726 -351.2668457 435.29516602 C-350.09453393 431.86269064 -348.91446902 428.43300572 -347.72949219 425.00488281 C-345.71408377 419.16525963 -343.73417035 413.31387201 -341.7578125 407.4609375 C-334.29137035 385.36849576 -326.73061573 363.31038478 -319.00927734 341.30566406 C-316.23359414 333.39333538 -313.47363452 325.47766913 -310.796875 317.53125 C-310.33592976 316.16900177 -309.87491326 314.80677765 -309.41381836 313.44458008 C-308.58471839 310.9942094 -307.76687326 308.5410518 -306.95532227 306.0847168 C-306.59494873 305.01906494 -306.2345752 303.95341309 -305.86328125 302.85546875 C-305.40949097 301.49071411 -305.40949097 301.49071411 -304.9465332 300.09838867 C-302.60035448 294.59332907 -299.01561903 290.39030504 -294.82085514 286.19137955 C-294.32979775 285.69711568 -293.83874036 285.20285181 -293.33280244 284.69361025 C-291.69108496 283.04361135 -290.04236856 281.40079419 -288.39356995 279.75787354 C-287.20119193 278.56247402 -286.00924839 277.366641 -284.81770176 276.17041278 C-281.54583669 272.8882593 -278.26775855 269.61237354 -274.98860872 266.33750033 C-271.45191433 262.80327154 -267.92096452 259.26331138 -264.38925171 255.72410583 C-257.4715419 248.79364356 -250.54835937 241.86867339 -243.62310071 234.94575509 C-237.99616538 229.32060205 -232.37099755 223.6936874 -226.74708366 218.06551361 C-225.94698984 217.2648246 -225.14689602 216.46413558 -224.32255692 215.63918327 C-222.69725752 214.01267213 -221.07195931 212.38615979 -219.4466623 210.75964627 C-204.20379406 195.50590092 -188.9544102 180.25868226 -173.70305472 165.01342353 C-159.74191328 151.05745452 -145.789009 137.09328321 -131.83995903 123.12522963 C-117.52259802 108.78851251 -103.19970842 94.4573405 -88.87078518 80.13217902 C-80.82394466 72.08725353 -72.77933657 64.04012531 -64.74051094 55.98719025 C-57.89903568 49.13382878 -51.05237298 42.28570272 -44.19888443 35.44435391 C-40.70084941 31.95222625 -37.20529729 28.45770358 -33.71618843 24.9566555 C-30.52435173 21.75402362 -27.32571666 18.55835205 -24.12143957 15.36816832 C-22.9613866 14.21077985 -21.80387893 13.05083364 -20.64914519 11.88813809 C-19.082898 10.31184071 -17.50775096 8.74501226 -15.929986 7.18025589 C-14.61921623 5.8694036 -14.61921623 5.8694036 -13.28196627 4.53206944 C-9.12050443 1.00237118 -5.37902139 0.11984713 0 0 Z M-2.57817799 46.07897949 C-3.3554655 46.85664673 -4.13275302 47.63431396 -4.9335947 48.43554688 C-5.82733502 49.32729614 -6.72107534 50.21904541 -7.64189869 51.13781738 C-8.64514501 52.14391734 -9.64834527 53.15006322 -10.65150452 54.15625 C-11.70810277 55.21241272 -12.76492052 56.26835589 -13.82194036 57.32409668 C-16.74074123 60.24064908 -19.656394 63.16033142 -22.57157099 66.08050537 C-25.71020536 69.22343904 -28.85170924 72.36350207 -31.99287415 75.50390625 C-37.43968187 80.9501884 -42.88464872 86.39830546 -48.32838631 91.84765625 C-56.19922019 99.72660072 -64.07279833 107.60279804 -71.94705933 115.47831726 C-84.72097501 128.25442417 -97.49265374 141.03276485 -110.26293945 153.8125 C-122.67160191 166.23033478 -135.08130924 178.64712382 -147.49243164 191.0625 C-148.25683979 191.82717087 -149.02124793 192.59184174 -149.80881996 193.37968445 C-153.64345438 197.21562387 -157.47810945 201.05154265 -161.31277478 204.88745117 C-193.1492175 236.73426867 -224.98203577 268.58470715 -256.8125 300.4375 C-255.8761169 301.54088218 -254.93813812 302.64291029 -253.99951172 303.74438477 C-253.47735077 304.35822525 -252.95518982 304.97206573 -252.41720581 305.60450745 C-250.04251076 308.31702853 -247.50817399 310.84973193 -244.9375 313.375 C-244.43992187 313.86806641 -243.94234375 314.36113281 -243.4296875 314.86914062 C-242.22629715 316.06095992 -241.01974635 317.24958678 -239.8125 318.4375 C-236.30990262 316.93731062 -234.0521496 314.92590173 -231.36911392 312.24020958 C-230.47985065 311.3549284 -229.59058737 310.46964722 -228.67437673 309.55753934 C-227.69170281 308.56915941 -226.70912174 307.58068716 -225.72662354 306.59213257 C-224.68002363 305.54640463 -223.63298441 304.50111621 -222.58554339 303.45623076 C-219.70546965 300.58063639 -216.83168153 297.6988306 -213.95886111 294.81599236 C-210.86094721 291.70945478 -207.75726934 288.60868547 -204.65428162 285.50721741 C-199.27791574 280.13190106 -193.90522864 274.75293018 -188.53501129 269.37147141 C-180.77054021 261.59075761 -173.00056316 253.81556152 -165.22922406 246.04170819 C-152.62139485 233.42949995 -140.01803996 220.81283031 -127.41748047 208.19335938 C-115.17600646 195.93353196 -102.93243708 183.67580343 -90.68603516 171.42089844 C-89.55404668 170.28812179 -89.55404668 170.28812179 -88.39918974 169.13246076 C-84.61333665 165.34399762 -80.82744224 161.55557579 -77.04152727 157.76717448 C-45.62544199 126.33035022 -14.21660987 94.8862869 17.1875 63.4375 C15.7047013 60.333497 14.195084 58.19816175 11.74609375 55.765625 C11.08029297 55.10175781 10.41449219 54.43789063 9.72851562 53.75390625 C9.03435547 53.07199219 8.34019531 52.39007813 7.625 51.6875 C6.92697266 50.99011719 6.22894531 50.29273438 5.50976562 49.57421875 C1.81532743 44.77943857 1.81532743 44.77943857 -2.57817799 46.07897949 Z M55.42182201 104.07897949 C54.6445345 104.85664673 53.86724698 105.63431396 53.0664053 106.43554688 C52.17266498 107.32729614 51.27892466 108.21904541 50.35810131 109.13781738 C49.35485499 110.14391734 48.35165473 111.15006322 47.34849548 112.15625 C46.29189723 113.21241272 45.23507948 114.26835589 44.17805964 115.32409668 C41.25925877 118.24064908 38.343606 121.16033142 35.42842901 124.08050537 C32.28979464 127.22343904 29.14829076 130.36350207 26.00712585 133.50390625 C20.56031813 138.9501884 15.11535128 144.39830546 9.67161369 149.84765625 C1.80077981 157.72660072 -6.07279833 165.60279804 -13.94705933 173.47831726 C-26.72097501 186.25442417 -39.49265374 199.03276485 -52.26293945 211.8125 C-64.67160191 224.23033478 -77.08130924 236.64712382 -89.49243164 249.0625 C-90.25683979 249.82717087 -91.02124793 250.59184174 -91.80881996 251.37968445 C-95.64345438 255.21562387 -99.47810945 259.05154265 -103.31277478 262.88745117 C-135.1492175 294.73426867 -166.98203577 326.58470715 -198.8125 358.4375 C-197.8761169 359.54088218 -196.93813812 360.64291029 -195.99951172 361.74438477 C-195.47735077 362.35822525 -194.95518982 362.97206573 -194.41720581 363.60450745 C-192.04251076 366.31702853 -189.50817399 368.84973193 -186.9375 371.375 C-186.43992188 371.86806641 -185.94234375 372.36113281 -185.4296875 372.86914062 C-184.22629715 374.06095992 -183.01974635 375.24958678 -181.8125 376.4375 C-178.30990262 374.93731062 -176.0521496 372.92590173 -173.36911392 370.24020958 C-172.47985065 369.3549284 -171.59058737 368.46964722 -170.67437673 367.55753934 C-169.69170281 366.56915941 -168.70912174 365.58068716 -167.72662354 364.59213257 C-166.68002363 363.54640463 -165.63298441 362.50111621 -164.58554339 361.45623076 C-161.70546965 358.58063639 -158.83168153 355.6988306 -155.95886111 352.81599236 C-152.86094721 349.70945478 -149.75726934 346.60868547 -146.65428162 343.50721741 C-141.27791574 338.13190106 -135.90522864 332.75293018 -130.53501129 327.37147141 C-122.77054021 319.59075761 -115.00056316 311.81556152 -107.22922406 304.04170819 C-94.62139485 291.42949995 -82.01803996 278.81283031 -69.41748047 266.19335938 C-57.17600646 253.93353196 -44.93243708 241.67580343 -32.68603516 229.42089844 C-31.55404668 228.28812179 -31.55404668 228.28812179 -30.39918974 227.13246076 C-26.61333665 223.34399762 -22.82744224 219.55557579 -19.04152727 215.76717448 C12.37455801 184.33035022 43.78339013 152.8862869 75.1875 121.4375 C73.7047013 118.333497 72.195084 116.19816175 69.74609375 113.765625 C69.08029297 113.10175781 68.41449219 112.43789062 67.72851562 111.75390625 C67.03435547 111.07199219 66.34019531 110.39007813 65.625 109.6875 C64.92697266 108.99011719 64.22894531 108.29273437 63.50976562 107.57421875 C59.81532743 102.77943857 59.81532743 102.77943857 55.42182201 104.07897949 Z M-277.8125 334.4375 C-280.82886539 342.77626636 -283.80432294 351.12818546 -286.72870445 359.49965763 C-288.08796343 363.38665424 -289.46074683 367.26769687 -290.86572266 371.13842773 C-292.22145227 374.87507885 -293.53995702 378.62300663 -294.83375931 382.38152885 C-295.33345902 383.81226294 -295.84634842 385.23846123 -296.37257004 386.65965462 C-299.51797236 394.13827179 -299.51797236 394.13827179 -298.84539795 401.79000854 C-297.29458894 403.62639756 -295.7343191 405.00327782 -293.8125 406.4375 C-292.93174805 407.42943359 -292.93174805 407.42943359 -292.03320312 408.44140625 C-290.47817413 410.12514185 -288.89888166 411.78329204 -287.3125 413.4375 C-286.76980469 414.03433594 -286.22710937 414.63117188 -285.66796875 415.24609375 C-285.12785156 415.80425781 -284.58773437 416.36242187 -284.03125 416.9375 C-283.55623047 417.4428125 -283.08121094 417.948125 -282.59179688 418.46875 C-279.23077694 420.29867963 -275.36616186 418.60016017 -271.86456299 417.57142639 C-270.83579041 417.22438156 -269.80701782 416.87733673 -268.74707031 416.51977539 C-266.98559662 415.9289492 -266.98559662 415.9289492 -265.1885376 415.32618713 C-263.92247325 414.89611861 -262.65650459 414.46576831 -261.390625 414.03515625 C-260.08127587 413.59273862 -258.77184668 413.15055788 -257.46234131 412.70860291 C-254.72790554 411.78449088 -251.99467121 410.85692677 -249.26220703 409.92700195 C-245.7585192 408.73501937 -242.25166461 407.55267584 -238.74382401 406.37297916 C-236.04356492 405.46352801 -233.34519904 404.54856367 -230.64736176 403.6319561 C-229.35457395 403.19356566 -228.06116331 402.75700754 -226.76712799 402.32231331 C-224.96294705 401.71543318 -223.16157469 401.1002226 -221.36035156 400.48461914 C-220.33476135 400.13677872 -219.30917114 399.78893829 -218.25250244 399.43055725 C-215.68633282 398.57025732 -215.68633282 398.57025732 -213.8125 396.4375 C-221.85589193 388.34785335 -229.90461365 380.26355216 -237.96026421 372.18611145 C-241.70029023 368.43562949 -245.43842554 364.68330203 -249.17236328 360.92675781 C-252.77304547 357.30441172 -256.37853172 353.68691331 -259.98746109 350.07278442 C-261.36637236 348.69016577 -262.74351651 347.3057825 -264.11889267 345.91964722 C-266.0393533 343.98475748 -267.96589117 342.05612729 -269.89404297 340.12890625 C-270.46659821 339.54916046 -271.03915344 338.96941467 -271.62905884 338.37210083 C-274.22986461 335.39381371 -274.22986461 335.39381371 -277.8125 334.4375 Z " fill="#000000" transform="translate(374.8125,-0.4375)"/>
</svg>
